<svg width="100" height="15" viewBox="0 0 100 15" fill="none" xmlns="http://www.w3.org/2000/svg">
<path d="M17.6175 14.9632V0.479126H28.5612V4.09092L21.2773 4.05406L21.3491 6.26537L27.09 6.30222V9.21377H21.2773V11.2777L28.5612 11.1671V14.9632H17.6175Z" fill="#FFD000"/>
<path d="M33.6204 10.5405H36.8855C36.8855 10.5405 38.0337 13.0098 40.3301 11.8673C41.1553 11.4619 40.9759 10.5774 40.5454 10.0614C40.2583 9.72972 39.8995 9.50859 39.4689 9.36117C38.0696 8.95576 34.4456 7.4447 34.1945 5.82308C33.8715 3.83291 34.1945 1.58475 37.2443 0.479103C37.2443 0.479103 43.7388 -1.03195 44.887 4.828H41.4065C41.4065 4.828 41.1195 3.09581 39.3254 3.20638C39.3254 3.20638 37.7467 3.39065 38.3208 4.86485C38.4643 5.19655 38.859 5.52824 39.1819 5.5651C40.366 5.78623 43.2723 6.44962 44.5281 9.06633C44.5281 9.06633 45.5328 12.2727 43.3441 13.968C40.8324 15.9214 36.3473 14.4472 36.3473 14.4472C36.455 14.3735 35.1991 14.2997 34.2662 12.7887C33.8356 12.1253 33.6562 11.6093 33.6562 10.9828L33.6204 10.5405Z" fill="#FFD000"/>
<path d="M54.2519 0.405396H50.7355V15H54.2519V0.405396Z" fill="#FFD000"/>
<path d="M60.7104 0.405396V14.9631H70.8289V11.4251L64.0115 11.3882L63.9397 0.405396H60.7104Z" fill="#FFD000"/>
<path d="M79.5838 0.29483H76.0674V14.8894H79.5838V0.29483Z" fill="#FFD000"/>
<path d="M94.0079 0H90.4557L84.356 14.484L88.8769 14.5946L89.5946 12.457L94.869 12.5307L95.5867 14.484H99.9641L94.0079 0ZM93.7567 9.28747H90.671L91.8192 5.34398H92.6444L93.7567 9.28747Z" fill="#FFD000"/>
<path d="M9.50843 10.4668C16.1464 3.90663 8.18084 0.331696 8.18084 0.331696H0V14.8157H3.9469V11.0934L5.38213 11.1671L8.00143 14.8526H12.7736L9.50843 10.4668ZM7.03265 7.03931L3.98278 7.07617C3.98278 7.07617 4.01866 4.49631 3.9469 4.09091C3.9469 4.05405 3.9469 4.05405 3.98278 4.05405C4.41335 4.05405 7.14029 4.05405 7.17617 4.05405C7.85791 4.27518 8.10908 5.34398 8.10908 5.38084C8.2526 5.97052 7.71439 6.59705 7.39146 6.85504C7.3197 7.00246 7.17617 7.03931 7.03265 7.03931Z" fill="#FFD000"/>
</svg>
